<svg viewBox="0 0 150 143" fill="none" xmlns="http://www.w3.org/2000/svg" width="43" height="43"><path fill-rule="evenodd" clip-rule="evenodd" d="M21.3529 28.7547L56.1824 54.6842C61.272 47.8662 69.4052 43.4391 78.5498 43.4391C93.9319 43.4391 106.45 55.9541 106.45 71.3339C106.45 86.7169 93.9315 99.2323 78.5498 99.2323C69.4052 99.2323 61.272 94.8071 56.1824 87.9891L21.3529 113.913C34.3722 131.356 55.1637 142.668 78.5498 142.668C117.885 142.668 149.886 110.667 149.886 71.3339C149.886 32.0039 117.885 0.000375748 78.5498 0.000375748C55.1633 0.000375748 34.3722 11.3149 21.3529 28.7551V28.7547Z" fill="url(#paint0_linear_1_10)"></path><path fill-rule="evenodd" clip-rule="evenodd" d="M138.823 84.9143C135.065 95.4474 115.551 128.741 71.6778 103.558C59.0787 96.3235 59.1087 93.9638 55.5508 88.5447L21.4696 113.912C34.4881 131.355 55.28 142.668 78.6661 142.668C117.998 142.668 150 110.667 150 71.3335C150 32.0035 117.998 0 78.6661 0C150 13.7211 143.988 70.4216 138.823 84.9143H138.823Z" fill="url(#paint1_linear_1_10)"></path><path fill-rule="evenodd" clip-rule="evenodd" d="M0 29.5717V112.927L19.1379 98.6784L41.5801 81.9775L55.9829 71.2484L41.5801 60.5237L19.1379 43.8184L0 29.5717Z" fill="url(#paint2_linear_1_10)"></path><path fill-rule="evenodd" clip-rule="evenodd" d="M37.6746 71.3036L19.9434 98.0799L41.7075 81.8808L55.983 71.2484L41.6137 60.5532L19.9915 44.4531L37.6746 71.3036Z" fill="url(#paint3_linear_1_10)"></path><defs><linearGradient id="paint0_linear_1_10" x1="21.3584" y1="71.3312" x2="149.889" y2="71.3312" gradientUnits="userSpaceOnUse"><stop stop-color="#329CD7"></stop><stop offset="1" stop-color="#3E4095"></stop></linearGradient><linearGradient id="paint1_linear_1_10" x1="21.4739" y1="71.3312" x2="150.004" y2="71.3312" gradientUnits="userSpaceOnUse"><stop stop-color="#3E4095"></stop><stop offset="1" stop-color="#329CD7"></stop></linearGradient><linearGradient id="paint2_linear_1_10" x1="-0.0421861" y1="71.2543" x2="55.9885" y2="71.2543" gradientUnits="userSpaceOnUse"><stop stop-color="#296F47"></stop><stop offset="0.580392" stop-color="#45B653"></stop><stop offset="1" stop-color="#45B653"></stop></linearGradient><linearGradient id="paint3_linear_1_10" x1="40.1845" y1="91.105" x2="23.6763" y2="43.1816" gradientUnits="userSpaceOnUse"><stop stop-color="#3AB778"></stop><stop offset="1" stop-color="#FEFEFE"></stop></linearGradient></defs></svg>